<?xml version="1.0" encoding="utf-8"?>
<svg viewBox="0 0 4096 640" xmlns="http://www.w3.org/2000/svg">
  <g id="document" transform="matrix(13.653334, 0, 0, 13.653334, 2048.00005, 1170.285758)">
    <path d="M128.776,-67.8353 L128.776,-70.6827 L129.655,-70.6827 L129.655,-74.4096 L131.875,-74.4096 L134.094,-74.4096 L134.094,-70.6827 L134.974,-70.6827 L134.974,-67.8353 L136.397,-67.8353 L136.397,-40.91 L131.875,-40.91 L127.352,-40.91 L127.352,-67.8353 L128.776,-67.8353 Z " fill="#8a8a8a" fill-opacity="1.00"/>
    <path d="M117.816,-40.9409 L122.374,-40.9409 L122.374,-61.8358 C122.374,-64.0027 121.361,-65.7362 120.095,-65.7362 C118.829,-65.7362 117.816,-64.0027 117.816,-61.8668 L117.816,-40.9409 Z M122.953,-59.3903 L122.953,-40.91 L124.635,-40.91 L124.635,-56.5115 C124.617,-58.0902 123.876,-59.3903 122.953,-59.3903 Z M117.291,-59.3903 L117.291,-40.91 L115.59,-40.91 L115.59,-56.5115 C115.59,-58.0902 116.35,-59.3903 117.291,-59.3903 Z " fill="#8a8a8a" fill-opacity="1.00"/>
    <path d="M106.291,-56.5152 L108.935,-56.5152 L110.218,-43.6418 L110.218,-41.1706 L104.988,-41.1706 L104.988,-43.6418 L106.291,-56.5152 Z " fill="#8a8a8a" fill-opacity="1.00"/>
    <path d="M100.746,-61.5056 L114.5,-61.5056 C114.864,-61.5056 115.132,-61.2182 115.132,-60.8734 C115.132,-60.5094 114.845,-60.2412 114.5,-60.2412 L114.002,-60.2412 L113.044,-58.5937 C112.795,-58.1914 112.355,-57.9232 111.895,-57.9232 L111.569,-57.9232 L110.458,-56.9654 C110.19,-56.7164 109.826,-56.5823 109.462,-56.5823 L105.784,-56.5823 C105.42,-56.5823 105.056,-56.7164 104.788,-56.9654 L103.677,-57.9232 L103.351,-57.9232 C102.872,-57.9232 102.431,-58.1723 102.202,-58.5937 L101.244,-60.2412 L100.746,-60.2412 C100.382,-60.2412 100.113,-60.5286 100.113,-60.8734 C100.094,-61.2182 100.382,-61.5056 100.746,-61.5056 Z M104.021,-60.1646 L104.021,-58.2681 L105.516,-58.2681 L105.516,-60.1646 L104.021,-60.1646 Z M105.918,-60.1646 L105.918,-58.2681 L107.412,-58.2681 L107.412,-60.1646 L105.918,-60.1646 Z M107.834,-60.1646 L107.834,-58.2681 L109.328,-58.2681 L109.328,-60.1646 L107.834,-60.1646 Z M109.749,-60.1646 L109.749,-58.2681 L111.244,-58.2681 L111.244,-60.1646 L109.749,-60.1646 Z M111.665,-58.2489 L111.952,-58.2489 C112.259,-58.2489 112.527,-58.4022 112.68,-58.6703 L113.542,-60.1646 L111.665,-60.1646 L111.665,-58.2489 Z M102.527,-58.6703 C102.681,-58.4213 102.949,-58.2489 103.255,-58.2489 L103.543,-58.2489 L103.543,-60.1454 L101.665,-60.1454 L102.527,-58.6703 Z M102.604,-63.4212 C103.102,-63.8427 103.715,-64.0917 104.366,-64.0917 L110.88,-64.0917 C111.531,-64.0917 112.163,-63.8618 112.642,-63.4212 L114.596,-61.7163 L100.65,-61.7163 L102.604,-63.4212 Z " fill="#8a8a8a" fill-opacity="1.00"/>
    <path d="M100.144,-58.1131 C99.976,-58.1131 99.8084,-57.9455 99.8084,-57.778 L99.8084,-57.003 C98.4261,-57.8617 96.2897,-57.9665 95.6823,-57.9665 L95.6823,-58.0083 C95.6823,-58.0921 95.5985,-58.155 95.5357,-58.134 L92.4987,-57.778 C92.3311,-57.757 92.1636,-57.6104 92.1636,-57.4009 C92.1636,-57.1915 92.3311,-57.0239 92.5406,-57.0239 L95.5357,-57.0239 C95.6195,-57.0239 95.6823,-57.1077 95.6823,-57.1706 L95.6823,-57.2753 C96.2688,-57.2753 98.6355,-57.1706 99.7875,-56.1652 L99.7875,-41.6714 C99.7875,-41.5039 99.955,-41.3363 100.123,-41.3363 C100.311,-41.3363 100.458,-41.5039 100.458,-41.6714 L100.458,-57.778 C100.5,-57.9246 100.311,-58.1131 100.144,-58.1131 Z " fill="#8a8a8a" fill-opacity="1.00"/>
    <path d="M85.3757,-53.7337 L95.0397,-53.7337 C95.6914,-53.7337 96.2318,-53.1933 96.2318,-52.5416 L96.2318,-42.2259 C96.2318,-41.5742 95.6914,-41.0338 95.0397,-41.0338 L85.3757,-41.0338 C84.724,-41.0338 84.1836,-41.5742 84.1836,-42.2259 L84.1836,-52.5416 C84.1836,-53.1933 84.724,-53.7337 85.3757,-53.7337 Z M91.5429,-52.9548 L88.8567,-52.9548 C88.5388,-52.9548 88.2845,-52.7005 88.2845,-52.3826 C88.2845,-52.0647 88.5388,-51.8104 88.8567,-51.8104 L91.5429,-51.8104 C91.8608,-51.8104 92.1151,-52.0647 92.1151,-52.3826 C92.1151,-52.7005 91.8608,-52.9548 91.5429,-52.9548 Z M95.151,-49.7918 C95.151,-50.1574 94.8649,-50.4435 94.4993,-50.4435 L85.9161,-50.4435 C85.5506,-50.4435 85.2645,-50.1574 85.2645,-49.7918 L85.2645,-47.2327 C85.2645,-46.8672 85.5506,-46.581 85.9161,-46.581 L94.4993,-46.581 C94.8649,-46.581 95.151,-46.8672 95.151,-47.2327 L95.151,-49.7918 Z M94.6583,-42.512 C95.1828,-42.512 95.6119,-42.9412 95.6119,-43.4657 C95.6119,-43.9902 95.1828,-44.4194 94.6583,-44.4194 C94.1337,-44.4194 93.7046,-43.9902 93.7046,-43.4657 C93.7046,-42.9412 94.1178,-42.512 94.6583,-42.512 Z M85.7572,-42.512 C86.2817,-42.512 86.7109,-42.9412 86.7109,-43.4657 C86.7109,-43.9902 86.2817,-44.4194 85.7572,-44.4194 C85.2327,-44.4194 84.8035,-43.9902 84.8035,-43.4657 C84.8035,-42.9412 85.2327,-42.512 85.7572,-42.512 Z " fill="#8a8a8a" fill-opacity="1.00"/>
    <path d="M139.087,-78.06 L139.087,-40.91 C138.437,-40.91 138.205,-40.91 138.205,-40.91 L138.205,-78.06 C138.205,-78.06 138.53,-78.06 139.087,-78.06 Z M150,-40.91 C143.917,-40.91 140.852,-40.91 139.412,-40.91 L139.412,-78.06 C140.387,-78.06 141.873,-78.06 143.313,-78.06 C137.415,-52.9373 148.142,-43.139 150,-40.91 Z M140.155,-42.4888 L147.864,-42.4888 C147.353,-43.0925 146.749,-43.8355 146.146,-44.7643 L140.202,-44.7643 L140.202,-42.4888 L140.155,-42.4888 Z M140.155,-46.2038 L145.217,-46.2038 C144.799,-46.9004 144.381,-47.6434 144.01,-48.4793 L140.155,-48.4793 L140.155,-46.2038 Z M140.155,-49.5474 L143.499,-49.5474 C143.174,-50.2439 142.895,-51.0334 142.616,-51.8228 L140.109,-51.8228 L140.109,-49.5474 L140.155,-49.5474 Z M140.155,-52.8909 L142.338,-52.8909 C142.106,-53.6339 141.92,-54.3769 141.734,-55.1663 L140.155,-55.1663 L140.155,-52.8909 Z M140.155,-72.2089 L141.409,-72.2089 C141.502,-72.9519 141.641,-73.6949 141.781,-74.4843 L140.155,-74.4843 L140.155,-72.2089 Z M140.155,-75.5524 L142.013,-75.5524 C142.152,-76.2954 142.338,-77.0384 142.524,-77.8278 L140.202,-77.8278 L140.202,-75.5524 L140.155,-75.5524 Z " fill="#8a8a8a" fill-opacity="1.00"/>
    <path d="M133.2,-75.1865 L130.555,-75.1865 C130.519,-75.1865 130.483,-75.2224 130.483,-75.2583 L130.483,-76.4842 C130.483,-76.5202 130.519,-76.5561 130.555,-76.5561 L133.2,-76.5561 C133.235,-76.5561 133.271,-76.5202 133.271,-76.4842 L133.271,-75.2583 C133.276,-75.2179 133.24,-75.1865 133.2,-75.1865 Z M133.604,-74.4096 L130.146,-74.4096 C130.11,-74.4096 130.074,-74.4455 130.074,-74.4814 L130.074,-74.926 C130.074,-74.9619 130.11,-74.9978 130.146,-74.9978 L133.608,-74.9978 C133.644,-74.9978 133.68,-74.9619 133.68,-74.926 L133.68,-74.4814 C133.676,-74.441 133.644,-74.4096 133.604,-74.4096 Z " fill="#8a8a8a" fill-opacity="1.00"/>
    <path d="M78.6041,-51.2084 L65.3284,-43.5436 M78.5873,-50.6812 C78.3729,-50.5574 78.0988,-50.6309 77.9751,-50.8452 C77.8513,-51.0596 77.9248,-51.3337 78.1391,-51.4574 C78.3535,-51.5812 78.6275,-51.5077 78.7513,-51.2934 C78.875,-51.079 78.8016,-50.8049 78.5873,-50.6812 Z M65.8201,-43.3101 C65.6057,-43.1863 65.3317,-43.2598 65.2079,-43.4741 C65.0842,-43.6884 65.1576,-43.9625 65.3719,-44.0863 C65.5863,-44.21 65.8604,-44.1366 65.9841,-43.9222 C66.1079,-43.7079 66.0344,-43.4338 65.8201,-43.3101 Z " fill="none" stroke-width="2.00" stroke="#8a8a8a" stroke-linecap="square" stroke-linejoin="miter"/>
    <path d="M102.78,-66.4973 L89.6792,-63.8932 M102.618,-66.0671 C102.407,-66.025 102.201,-66.1624 102.159,-66.3739 C102.117,-66.5855 102.255,-66.791 102.466,-66.8331 C102.678,-66.8751 102.883,-66.7377 102.925,-66.5262 C102.967,-66.3147 102.83,-66.1091 102.618,-66.0671 Z M90.0195,-63.5628 C89.808,-63.5207 89.6024,-63.6581 89.5604,-63.8696 C89.5183,-64.0811 89.6557,-64.2867 89.8672,-64.3287 C90.0787,-64.3708 90.2843,-64.2334 90.3263,-64.0219 C90.3684,-63.8104 90.231,-63.6048 90.0195,-63.5628 Z " fill="none" stroke-width="2.00" stroke="#8a8a8a" stroke-linecap="square" stroke-linejoin="miter"/>
    <path d="M125.939,-80.2034 L115.902,-70.9652 M126.027,-79.7424 C125.865,-79.5932 125.613,-79.6037 125.464,-79.7657 C125.315,-79.9278 125.325,-80.18 125.487,-80.3292 C125.649,-80.4783 125.901,-80.4679 126.051,-80.3058 C126.2,-80.1438 126.189,-79.8915 126.027,-79.7424 Z M116.375,-70.858 C116.213,-70.7088 115.961,-70.7193 115.811,-70.8813 C115.662,-71.0434 115.673,-71.2957 115.835,-71.4448 C115.997,-71.594 116.249,-71.5835 116.398,-71.4215 C116.547,-71.2594 116.537,-71.0072 116.375,-70.858 Z " fill="none" stroke-width="2.00" stroke="#8a8a8a" stroke-linecap="square" stroke-linejoin="miter"/>
    <path d="M138.755,-81.7808 L125.464,-80.028 M138.565,-81.3604 C138.35,-81.3321 138.154,-81.4832 138.125,-81.6978 C138.097,-81.9124 138.248,-82.1093 138.463,-82.1376 C138.677,-82.1659 138.874,-82.0148 138.902,-81.8002 C138.931,-81.5857 138.78,-81.3887 138.565,-81.3604 Z M125.783,-79.6748 C125.568,-79.6465 125.371,-79.7975 125.343,-80.0121 C125.315,-80.2267 125.466,-80.4236 125.681,-80.4519 C125.895,-80.4802 126.092,-80.3291 126.12,-80.1145 C126.149,-79.9 125.998,-79.7031 125.783,-79.6748 Z " fill="none" stroke-width="2.00" stroke="#8a8a8a" stroke-linecap="square" stroke-linejoin="miter"/>
    <path d="M90.0522,-64.0097 L78.1779,-50.8007 M90.2229,-63.4229 C90.0312,-63.2096 89.7029,-63.1921 89.4896,-63.3839 C89.2763,-63.5756 89.2589,-63.9039 89.4506,-64.1171 C89.6423,-64.3304 89.9706,-64.3479 90.1839,-64.1562 C90.3971,-63.9644 90.4146,-63.6361 90.2229,-63.4229 Z M78.8035,-50.7199 C78.6118,-50.5066 78.2835,-50.4891 78.0702,-50.6808 C77.8569,-50.8726 77.8395,-51.2009 78.0312,-51.4141 C78.2229,-51.6274 78.5512,-51.6449 78.7645,-51.4531 C78.9777,-51.2614 78.9952,-50.9331 78.8035,-50.7199 Z " fill="none" stroke-width="2.00" stroke="#8a8a8a" stroke-linecap="square" stroke-linejoin="miter"/>
    <path d="M116.351,-71.2615 L102.169,-66.2851 M116.239,-70.7566 C116.01,-70.6763 115.759,-70.7968 115.679,-71.0257 C115.598,-71.2547 115.719,-71.5054 115.948,-71.5858 C116.177,-71.6661 116.428,-71.5456 116.508,-71.3167 C116.588,-71.0877 116.468,-70.837 116.239,-70.7566 Z M102.6,-65.9708 C102.371,-65.8905 102.121,-66.011 102.04,-66.2399 C101.96,-66.4689 102.08,-66.7197 102.309,-66.8 C102.538,-66.8803 102.789,-66.7599 102.869,-66.5309 C102.95,-66.3019 102.829,-66.0512 102.6,-65.9708 Z " fill="none" stroke-width="2.00" stroke="#8a8a8a" stroke-linecap="square" stroke-linejoin="miter"/>
    <path d="M-129.515,-71.6921 C-129.515,-79.001 -132.807,-83.3528 -139.334,-83.3528 C-145.806,-83.3528 -149.098,-79.001 -149.098,-71.6921 L-149.098,-53.9499 C-149.098,-50.2676 -148.317,-47.4221 -146.699,-45.4694 C-145.527,-43.963 -143.352,-42.2334 -139.334,-42.2334 C-135.317,-42.2334 -133.086,-43.963 -131.914,-45.4694 C-130.296,-47.4221 -129.515,-50.2676 -129.515,-53.9499 L-129.515,-62.3189 L-141.176,-62.3189 L-141.176,-60.3661 L-131.468,-60.3661 L-131.468,-53.9499 C-131.468,-47.5337 -134.146,-44.1862 -139.334,-44.1862 C-144.467,-44.1862 -147.145,-47.5337 -147.145,-53.9499 L-147.145,-71.6921 C-147.145,-77.9967 -144.523,-81.3443 -139.334,-81.3443 C-134.034,-81.3443 -131.468,-77.9967 -131.468,-71.6921 L-131.468,-69.0698 L-129.515,-69.0698 L-129.515,-71.6921 Z M-132.807,-71.6921 C-132.807,-77.4946 -135.038,-80.061 -139.334,-80.061 C-143.631,-80.061 -145.806,-77.4946 -145.806,-71.6921 L-145.806,-53.9499 C-145.806,-50.9929 -145.248,-48.8728 -144.133,-47.5337 C-143.128,-46.1947 -141.51,-45.5252 -139.334,-45.5252 C-137.103,-45.5252 -135.485,-46.1947 -134.48,-47.5337 C-133.365,-48.8728 -132.807,-50.9929 -132.807,-53.9499 L-132.807,-59.0271 L-141.176,-59.0271 L-141.176,-57.0743 L-134.815,-57.0743 L-134.815,-53.9499 C-134.815,-50.6581 -135.541,-49.0959 -136.433,-48.3148 C-137.382,-47.5337 -138.498,-47.4779 -139.334,-47.4779 C-140.171,-47.4779 -141.231,-47.5337 -142.18,-48.3148 C-143.128,-49.0959 -143.854,-50.6581 -143.854,-53.9499 L-143.854,-71.6921 C-143.854,-74.6491 -143.296,-76.2113 -142.403,-77.104 C-141.566,-77.9409 -140.45,-78.0525 -139.334,-78.0525 C-138.219,-78.0525 -137.103,-77.9409 -136.21,-77.104 C-135.373,-76.2113 -134.815,-74.6491 -134.815,-71.6921 L-134.815,-69.0698 L-132.807,-69.0698 L-132.807,-71.6921 Z M-108.109,-81.2885 L-108.109,-83.297 L-125.126,-83.297 L-125.126,-42.1776 L-108.109,-42.1776 L-108.109,-44.1304 L-123.173,-44.1304 L-123.173,-81.2885 L-108.109,-81.2885 Z M-121.834,-63.3789 L-108.109,-63.3789 L-108.109,-65.3875 L-119.881,-65.3875 L-119.881,-77.9967 L-108.109,-77.9967 L-108.109,-80.0052 L-121.834,-80.0052 L-121.834,-63.3789 Z M-121.834,-45.4694 L-108.109,-45.4694 L-108.109,-47.4221 L-119.881,-47.4221 L-119.881,-60.0872 L-108.109,-60.0872 L-108.109,-62.0957 L-121.834,-62.0957 L-121.834,-45.4694 Z M-86.4241,-81.2885 L-86.4241,-83.297 L-103.441,-83.297 L-103.441,-42.1776 L-86.4241,-42.1776 L-86.4241,-44.1304 L-101.488,-44.1304 L-101.488,-81.2885 L-86.4241,-81.2885 Z M-100.149,-63.3789 L-86.4241,-63.3789 L-86.4241,-65.3875 L-98.1964,-65.3875 L-98.1964,-77.9967 L-86.4241,-77.9967 L-86.4241,-80.0052 L-100.149,-80.0052 L-100.149,-63.3789 Z M-100.149,-45.4694 L-86.4241,-45.4694 L-86.4241,-47.4221 L-98.1964,-47.4221 L-98.1964,-60.0872 L-86.4241,-60.0872 L-86.4241,-62.0957 L-100.149,-62.0957 L-100.149,-45.4694 Z M-81.7003,-57.2417 L-81.7561,-57.1301 L-81.7003,-57.1301 L-81.7003,-42.2334 L-79.7476,-42.2334 L-79.7476,-83.3528 L-81.7003,-83.3528 L-81.7003,-57.2417 Z M-64.795,-83.3528 L-76.4558,-65.3875 L-76.4558,-83.3528 L-78.4085,-83.3528 L-78.4085,-58.7481 L-62.5075,-83.3528 L-64.795,-83.3528 Z M-58.881,-42.2334 L-70.9881,-64.1042 L-58.4904,-83.3528 L-60.9453,-83.3528 L-73.3314,-64.2158 L-61.1127,-42.2334 L-58.881,-42.2334 Z M-76.4558,-42.2334 L-76.4558,-55.6795 L-74.2798,-59.0829 L-64.9066,-42.2334 L-62.6749,-42.2334 L-74.1125,-62.9326 L-78.4085,-56.2932 L-78.4085,-42.2334 L-76.4558,-42.2334 Z M-35.8013,-71.7479 C-35.8013,-75.3744 -36.5824,-78.1641 -38.1446,-80.1726 C-39.3163,-81.679 -41.548,-83.4086 -45.5651,-83.4086 C-49.5822,-83.4086 -51.8139,-81.679 -52.9855,-80.1726 C-54.5477,-78.1641 -55.3288,-75.3744 -55.3288,-71.7479 L-55.3288,-54.0057 C-55.3288,-50.3234 -54.5477,-47.5337 -52.9855,-45.581 C-51.8139,-44.0746 -49.5822,-42.2892 -45.5651,-42.2892 C-43.5565,-42.2892 -41.9943,-42.7355 -40.7669,-43.4051 C-39.5394,-44.0188 -38.7583,-44.8557 -38.1446,-45.581 C-36.5824,-47.5337 -35.8013,-50.3234 -35.8013,-54.0057 L-35.8013,-71.7479 Z M-37.754,-54.0057 C-37.754,-47.7011 -40.4879,-44.2419 -45.5651,-44.2419 C-50.6422,-44.2419 -53.3761,-47.7011 -53.3761,-54.0057 L-53.3761,-71.7479 C-53.3761,-78.0525 -50.698,-81.4559 -45.5651,-81.4559 C-40.4321,-81.4559 -37.754,-78.0525 -37.754,-71.7479 L-37.754,-54.0057 Z M-39.0931,-71.7479 C-39.0931,-74.6491 -39.651,-76.7692 -40.7669,-78.1083 C-41.7711,-79.4473 -43.3891,-80.1168 -45.5651,-80.1168 C-47.741,-80.1168 -49.359,-79.4473 -50.3633,-78.1083 C-51.4791,-76.7692 -52.037,-74.6491 -52.037,-71.7479 L-52.037,-54.0057 C-52.037,-48.3706 -49.8611,-45.581 -45.5651,-45.581 C-41.269,-45.581 -39.0931,-48.3706 -39.0931,-54.0057 L-39.0931,-71.7479 Z M-41.0458,-54.0057 C-41.0458,-50.7139 -41.7711,-49.1517 -42.7196,-48.3706 C-43.6681,-47.5895 -44.8398,-47.5337 -45.5651,-47.5337 C-46.402,-47.5337 -47.462,-47.5895 -48.4105,-48.3706 C-49.359,-49.1517 -50.0843,-50.7139 -50.0843,-54.0057 L-50.0843,-71.7479 C-50.0843,-74.9281 -49.359,-76.6019 -48.4105,-77.383 C-47.462,-78.1641 -46.402,-78.1641 -45.5651,-78.1641 C-44.8398,-78.1641 -43.6681,-78.1641 -42.7196,-77.383 C-41.7711,-76.6019 -41.0458,-74.9281 -41.0458,-71.7479 L-41.0458,-54.0057 Z M-17.3524,-83.4086 L-17.3524,-58.5249 L-27.3952,-83.4086 L-31.8028,-83.4086 L-31.8028,-42.2892 L-29.85,-42.2892 L-29.85,-81.4001 L-28.6784,-81.4001 L-15.3439,-48.3148 L-15.3439,-83.4086 L-17.3524,-83.4086 Z M-28.511,-77.383 L-28.511,-42.2892 L-26.5583,-42.2892 L-26.5583,-67.1729 L-16.5155,-42.2892 L-12.0521,-42.2892 L-12.0521,-83.4086 L-14.0606,-83.4086 L-14.0606,-44.2977 L-15.1765,-44.2977 L-28.511,-77.383 Z M12.3666,-71.7479 C12.3666,-75.3744 11.5855,-78.1641 10.0233,-80.1726 C8.85168,-81.679 6.61996,-83.4086 2.60286,-83.4086 C-1.41423,-83.4086 -3.64595,-81.679 -4.8176,-80.1726 C-6.3798,-78.1641 -7.16091,-75.3744 -7.16091,-71.7479 L-7.16091,-54.0057 C-7.16091,-50.3234 -6.3798,-47.5337 -4.8176,-45.581 C-3.64595,-44.0746 -1.41423,-42.2892 2.60286,-42.2892 C4.61141,-42.2892 6.17361,-42.7355 7.40106,-43.4051 C8.6285,-44.0188 9.40961,-44.8557 10.0233,-45.581 C11.5855,-47.5337 12.3666,-50.3234 12.3666,-54.0057 L12.3666,-71.7479 Z M10.4139,-54.0057 C10.4139,-47.7011 7.68002,-44.2419 2.60286,-44.2419 C-2.4743,-44.2419 -5.20815,-47.7011 -5.20815,-54.0057 L-5.20815,-71.7479 C-5.20815,-78.0525 -2.53009,-81.4559 2.60286,-81.4559 C7.73582,-81.4559 10.4139,-78.0525 10.4139,-71.7479 L10.4139,-54.0057 Z M9.07485,-71.7479 C9.07485,-74.6491 8.51692,-76.7692 7.40106,-78.1083 C6.39679,-79.4473 4.77879,-80.1168 2.60286,-80.1168 C0.426938,-80.1168 -1.19106,-79.4473 -2.19533,-78.1083 C-3.31119,-76.7692 -3.86912,-74.6491 -3.86912,-71.7479 L-3.86912,-54.0057 C-3.86912,-48.3706 -1.69319,-45.581 2.60286,-45.581 C6.89892,-45.581 9.07485,-48.3706 9.07485,-54.0057 L9.07485,-71.7479 Z M7.12209,-54.0057 C7.12209,-50.7139 6.39679,-49.1517 5.4483,-48.3706 C4.49982,-47.5895 3.32817,-47.5337 2.60286,-47.5337 C1.76597,-47.5337 0.705903,-47.5895 -0.242578,-48.3706 C-1.19106,-49.1517 -1.91637,-50.7139 -1.91637,-54.0057 L-1.91637,-71.7479 C-1.91637,-74.9281 -1.19106,-76.6019 -0.242578,-77.383 C0.705903,-78.1641 1.76597,-78.1641 2.60286,-78.1641 C3.32817,-78.1641 4.49982,-78.1641 5.4483,-77.383 C6.39679,-76.6019 7.12209,-74.9281 7.12209,-71.7479 L7.12209,-54.0057 Z M29.3091,-54.3963 L20.9959,-83.3528 L16.3651,-83.3528 L16.3651,-42.2334 L18.3179,-42.2334 L18.3179,-81.3443 L19.4895,-81.3443 L29.3091,-47.2548 L39.0729,-81.3443 L40.2445,-81.3443 L40.2445,-42.2334 L42.1973,-42.2334 L42.1973,-83.3528 L37.5665,-83.3528 L29.3091,-54.3963 Z M21.6097,-61.9283 L27.3006,-42.2334 L31.2619,-42.2334 L36.9527,-61.9283 L36.9527,-42.2334 L38.9055,-42.2334 L38.9055,-76.0439 L29.3091,-42.4566 L19.6569,-76.0439 L19.6569,-42.2334 L21.6097,-42.2334 L21.6097,-61.9283 Z M45.0799,-83.297 L56.7964,-62.0399 L56.7964,-42.1776 L58.6934,-42.1776 L58.6934,-62.542 L47.3116,-83.297 L45.0799,-83.297 Z M59.4187,-68.1771 L51.1055,-83.297 L48.818,-83.297 L59.3629,-64.1042 L69.9078,-83.297 L67.7876,-83.297 L59.4187,-68.1771 Z M62.041,-42.1776 L62.041,-62.0399 L73.8133,-83.297 L71.4142,-83.297 L59.9766,-62.542 L59.9766,-42.1776 L62.041,-42.1776 Z " fill="#8a8a8a" fill-opacity="1.00"/>
    <path d="M81.297,-47.2982 L76.2939,-47.2982 C76.2091,-47.2982 76.1243,-47.2228 76.1243,-47.1286 L76.1243,-46.3089 C76.1243,-46.2241 76.1996,-46.1393 76.2939,-46.1393 L81.297,-46.1393 C81.3913,-46.1393 81.4666,-46.2146 81.4666,-46.3089 L81.4666,-47.1286 C81.4478,-47.2322 81.3818,-47.2982 81.297,-47.2982 Z M79.1111,-48.2121 C79.1111,-48.3252 79.0263,-48.4194 78.9038,-48.4194 L78.6777,-48.4194 C78.5646,-48.4194 78.4704,-48.3346 78.4704,-48.2121 L78.4704,-47.6186 L79.1017,-47.6186 L79.1111,-48.2121 Z M80.0533,-40.9194 L80.4019,-40.9194 C80.5056,-40.9194 80.5998,-40.9948 80.6092,-41.1078 L80.9955,-45.8283 L80.2135,-45.8283 L80.0533,-40.9194 Z M76.5954,-45.8189 L76.9817,-41.0984 C76.9911,-40.9948 77.0759,-40.91 77.189,-40.91 L77.547,-40.91 L77.3774,-45.8189 L76.5954,-45.8189 Z M77.9522,-40.9194 L78.5929,-40.9194 L78.5929,-45.8189 L77.7826,-45.8189 L77.9522,-40.9194 Z M78.998,-40.9194 L79.6387,-40.9194 L79.7989,-45.8189 L78.998,-45.8189 L78.998,-40.9194 Z " fill="#8a8a8a" fill-opacity="1.00"/>
  </g>
</svg>